<?xml version="1.0" encoding="UTF-8"?>
<svg height="128px" viewBox="0 0 128 128" width="128px" xmlns="http://www.w3.org/2000/svg" xmlns:xlink="http://www.w3.org/1999/xlink">
    <defs>
        <clipPath id="a">
            <rect height="152" width="192"/>
        </clipPath>
        <g id="b" clip-path="url(#a)">
            <path d="m 25.753906 63.375 c -0.109375 -0.109375 -0.203125 -0.195312 -0.34375 -0.265625 c -0.089844 -0.042969 -0.195312 -0.003906 -0.238281 0.085937 c -0.042969 0.089844 -0.007813 0.195313 0.082031 0.238282 c 0.105469 0.050781 0.175782 0.109375 0.253906 0.191406 c 0.398438 0.398438 0.398438 1.050781 0 1.453125 c -0.191406 0.195313 -0.445312 0.300781 -0.71875 0.300781 c -0.269531 0 -0.523437 -0.105468 -0.71875 -0.300781 c -0.394531 -0.402344 -0.394531 -1.054687 0 -1.453125 c 0.082032 -0.082031 0.164063 -0.140625 0.261719 -0.191406 c 0.085938 -0.042969 0.121094 -0.148438 0.078125 -0.238282 c -0.039062 -0.089843 -0.128906 -0.125 -0.214844 -0.085937 c -0.136718 0.070313 -0.261718 0.15625 -0.367187 0.265625 c -0.53125 0.539062 -0.53125 1.414062 0 1.949219 c 0.265625 0.269531 0.613281 0.402343 0.960937 0.402343 c 0.351563 0 0.699219 -0.132812 0.964844 -0.402343 c 0.53125 -0.535157 0.53125 -1.410157 0 -1.949219 z m -0.964844 1.144531 c 0.101563 0 0.183594 -0.082031 0.183594 -0.183593 v -1.332032 c 0 -0.101562 -0.082031 -0.183594 -0.183594 -0.183594 c -0.097656 0 -0.179687 0.082032 -0.179687 0.183594 v 1.332032 c 0 0.101562 0.082031 0.183593 0.179687 0.183593 z m 0 0"/>
        </g>
        <clipPath id="c">
            <rect height="128" width="128"/>
        </clipPath>
        <clipPath id="d">
            <rect height="128" width="128"/>
        </clipPath>
        <filter id="e" height="100%" width="100%" x="0%" y="0%">
            <feColorMatrix in="SourceGraphic" type="matrix" values="0 0 0 0 1 0 0 0 0 1 0 0 0 0 1 0 0 0 1 0"/>
        </filter>
        <mask id="f">
            <g clip-path="url(#d)" filter="url(#e)">
                <g clip-path="url(#c)">
                    <path d="m 17.105469 24.039062 h 93.761719 c 6.125 0 11.085937 4.824219 11.085937 10.773438 v 50.101562 c 0 5.949219 -4.960937 10.773438 -11.085937 10.773438 h -93.761719 c -6.121094 0 -11.082031 -4.824219 -11.082031 -10.773438 v -50.101562 c 0 -5.949219 4.960937 -10.773438 11.082031 -10.773438 z m 0 0" fill="#3d3846"/>
                    <path d="m 17.105469 23.953125 c -6.140625 0 -11.082031 4.808594 -11.082031 10.777344 v 19.828125 h 115.929687 v -19.828125 c 0 -5.96875 -4.941406 -10.777344 -11.082031 -10.777344 z m 0 0" fill="#5e5c64"/>
                    <path d="m 25.421875 77.910156 h 77.132813 v 6.015625 h -77.132813 z m 0 0" fill="#5e5c64"/>
                    <path d="m 33.863281 80.773438 v 35.15625 h 42.007813 l 18.242187 -18.246094 v -16.910156 z m 0 0" fill="#ffffff"/>
                    <path d="m 75.871094 97.683594 v 18.246094 l 18.242187 -18.246094 z m 0 0" fill="#c0bfbc"/>
                    <path d="m 80.6875 109.722656 h -1.214844 v -7.648437 c 0 -0.632813 0.011719 -1.242188 0.050782 -1.824219 c -0.101563 0.101562 -0.226563 0.226562 -0.355469 0.355469 c -0.101563 0.101562 -0.683594 0.582031 -1.722657 1.417969 l -0.65625 -0.863282 l 2.835938 -2.175781 h 1.0625 z m -5.265625 -16.054687"/>
                    <path d="m 152.441969 235.270095 h 8.30767 c 0.647219 0 1.169893 0.434882 1.169893 0.975932 v 9.745026" fill="none" stroke="#3d3846" stroke-linecap="square" stroke-linejoin="round" stroke-width="0.519249" transform="matrix(1.913236 0 0 1.913236 -285.133974 -415.263855)"/>
                    <path d="m 8.742188 49.199219 h 3.128906 c 0.367187 0 0.660156 0.292969 0.660156 0.660156 v 1.980469 c 0 0.367187 -0.292969 0.660156 -0.660156 0.660156 h -3.128906 c -0.363282 0 -0.660157 -0.292969 -0.660157 -0.660156 v -1.980469 c 0 -0.367187 0.296875 -0.660156 0.660157 -0.660156 z m 0 0" fill="#26a269"/>
                    <path d="m 8.742188 48.507812 h 3.128906 c 0.367187 0 0.660156 0.296876 0.660156 0.660157 v 1.980469 c 0 0.367187 -0.292969 0.664062 -0.660156 0.664062 h -3.128906 c -0.363282 0 -0.660157 -0.296875 -0.660157 -0.664062 v -1.980469 c 0 -0.363281 0.296875 -0.660157 0.660157 -0.660157 z m 0 0" fill="#33d17a"/>
                    <path d="m 8.742188 43.59375 h 3.128906 c 0.367187 0 0.660156 0.292969 0.660156 0.660156 v 1.980469 c 0 0.363281 -0.292969 0.660156 -0.660156 0.660156 h -3.128906 c -0.363282 0 -0.660157 -0.296875 -0.660157 -0.660156 v -1.980469 c 0 -0.367187 0.296875 -0.660156 0.660157 -0.660156 z m 0 0" fill="#9a9996"/>
                    <path d="m 8.742188 42.902344 h 3.128906 c 0.367187 0 0.660156 0.296875 0.660156 0.660156 v 1.980469 c 0 0.367187 -0.292969 0.664062 -0.660156 0.664062 h -3.128906 c -0.363282 0 -0.660157 -0.296875 -0.660157 -0.664062 v -1.980469 c 0 -0.363281 0.296875 -0.660156 0.660157 -0.660156 z m 0 0" fill="#deddda"/>
                    <path d="m 8.742188 37.988281 h 3.128906 c 0.367187 0 0.660156 0.292969 0.660156 0.660157 v 1.980468 c 0 0.363282 -0.292969 0.660156 -0.660156 0.660156 h -3.128906 c -0.363282 0 -0.660157 -0.296874 -0.660157 -0.660156 v -1.980468 c 0 -0.367188 0.296875 -0.660157 0.660157 -0.660157 z m 0 0" fill="#1a5fb4"/>
                    <path d="m 8.742188 37.296875 h 3.128906 c 0.367187 0 0.660156 0.296875 0.660156 0.660156 v 1.980469 c 0 0.367188 -0.292969 0.664062 -0.660156 0.664062 h -3.128906 c -0.363282 0 -0.660157 -0.296874 -0.660157 -0.664062 v -1.980469 c 0 -0.363281 0.296875 -0.660156 0.660157 -0.660156 z m 0 0" fill="#3584e4"/>
                    <path d="m 161.080394 242.287044 c 0 0.224587 -0.183752 0.406298 -0.408339 0.406298 s -0.406298 -0.181711 -0.406298 -0.406298 s 0.181711 -0.40834 0.406298 -0.40834 s 0.408339 0.183753 0.408339 0.40834 z m 0 0" fill="#33d17a" stroke="#26a269" stroke-linecap="square" stroke-width="0.110243" transform="matrix(1.913236 0 0 1.913236 -285.133974 -416.142057)"/>
                    <path d="m 161.080394 243.528396 c 0 0.224587 -0.183752 0.406298 -0.408339 0.406298 s -0.406298 -0.181711 -0.406298 -0.406298 c 0 -0.224586 0.181711 -0.406298 0.406298 -0.406298 s 0.408339 0.181712 0.408339 0.406298 z m 0 0" fill="#f6d32d" stroke="#e5a50a" stroke-linecap="square" stroke-width="0.110243" transform="matrix(1.913236 0 0 1.913236 -285.133974 -416.142057)"/>
                    <path d="m 16.789062 45.597656 c 1.480469 0 2.679688 1.199219 2.679688 2.675782 v 0.671874 c 0 1.476563 -1.199219 2.679688 -2.679688 2.679688 c -1.476562 0 -2.675781 -1.203125 -2.675781 -2.679688 v -0.671874 c 0 -1.476563 1.199219 -2.675782 2.675781 -2.675782 z m 0 0" fill="#a51d2d"/>
                    <path d="m 19.46875 48.273438 c 0 1.480468 -1.199219 2.679687 -2.679688 2.679687 c -1.476562 0 -2.675781 -1.199219 -2.675781 -2.679687 c 0 -1.476563 1.199219 -2.675782 2.675781 -2.675782 c 1.480469 0 2.679688 1.199219 2.679688 2.675782 z m 0 0" fill="#e01b24"/>
                    <use transform="matrix(1 0 0 1 -8 -16)" xlink:href="#b"/>
                    <path d="m 15.273438 38.4375 h 6.738281 c 0.640625 0 1.164062 0.519531 1.164062 1.164062 v 3.730469 c 0 0.644531 -0.523437 1.164063 -1.164062 1.164063 h -6.738281 c -0.640626 0 -1.160157 -0.519532 -1.160157 -1.164063 v -3.730469 c 0 -0.644531 0.519531 -1.164062 1.160157 -1.164062 z m 0 0"/>
                    <path d="m 181.04205 413.371094 l -4.777854 4.875362 h -18.62388 l -4.924114 -4.875362 l 4.924114 -4.924114 h 18.62388 z m 0 0" fill="#c01c28" fill-rule="evenodd" stroke="#000000" stroke-width="0.315356" transform="matrix(0.0801223 0 0 0.0801223 3.392938 6.282114)"/>
                    <path d="m 181.04205 439.064248 l -4.777854 4.875361 h -18.62388 l -4.924114 -4.875361 l 4.924114 -4.924115 h 18.62388 z m 0 0" fill="none" stroke="#000000" stroke-width="0.315356" transform="matrix(0.0801223 0 0 0.0801223 3.392938 6.282114)"/>
                    <path d="m 151.789883 414.248659 l 4.875361 4.826608 v 14.187301 l -4.875361 4.875361 l -4.924115 -4.875361 v -14.187301 z m 0 0" fill="#c01c28" fill-rule="evenodd" stroke="#000000" stroke-width="0.315356" transform="matrix(0.0801223 0 0 0.0801223 3.392938 6.282114)"/>
                    <path d="m 182.065876 414.248659 l 4.875361 4.826608 v 14.187301 l -4.875361 4.875361 l -4.924115 -4.875361 v -14.187301 z m 0 0" fill="#c01c28" fill-rule="evenodd" stroke="#000000" stroke-width="0.315356" transform="matrix(0.0801223 0 0 0.0801223 3.392938 6.282114)"/>
                    <path d="m 181.04205 464.952416 l -4.777854 4.875361 h -18.62388 l -4.924114 -4.875361 l 4.924114 -4.924115 h 18.62388 z m 0 0" fill="#c01c28" fill-rule="evenodd" stroke="#000000" stroke-width="0.315356" transform="matrix(0.0801223 0 0 0.0801223 3.392938 6.282114)"/>
                    <path d="m 151.789883 440.136827 l 4.875361 4.777854 v 14.187301 l -4.875361 4.924115 l -4.924115 -4.924115 v -14.187301 z m 0 0" fill="#c01c28" fill-rule="evenodd" stroke="#000000" stroke-width="0.315356" transform="matrix(0.0801223 0 0 0.0801223 3.392938 6.282114)"/>
                    <path d="m 182.065876 440.136827 l 4.875361 4.777854 v 14.187301 l -4.875361 4.924115 l -4.924115 -4.924115 v -14.187301 z m 0 0" fill="#c01c28" fill-rule="evenodd" stroke="#000000" stroke-width="0.315356" transform="matrix(0.0801223 0 0 0.0801223 3.392938 6.282114)"/>
                    <path d="m 227.894271 413.371094 l -4.777854 4.875362 h -18.62388 l -4.924115 -4.875362 l 4.924115 -4.924114 h 18.62388 z m 0 0" fill="#c01c28" fill-rule="evenodd" stroke="#000000" stroke-width="0.315356" transform="matrix(0.0801223 0 0 0.0801223 3.392938 6.282114)"/>
                    <path d="m 227.894271 439.064248 l -4.777854 4.875361 h -18.62388 l -4.924115 -4.875361 l 4.924115 -4.924115 h 18.62388 z m 0 0" fill="#c01c28" fill-rule="evenodd" stroke="#000000" stroke-width="0.315356" transform="matrix(0.0801223 0 0 0.0801223 3.392938 6.282114)"/>
                    <path d="m 198.642104 414.248659 l 4.875361 4.826608 v 14.187301 l -4.875361 4.875361 l -4.924115 -4.875361 v -14.187301 z m 0 0" fill="none" stroke="#000000" stroke-width="0.315356" transform="matrix(0.0801223 0 0 0.0801223 3.392938 6.282114)"/>
                    <path d="m 228.918097 414.248659 l 4.875361 4.826608 v 14.187301 l -4.875361 4.875361 l -4.924115 -4.875361 v -14.187301 z m 0 0" fill="#c01c28" fill-rule="evenodd" stroke="#000000" stroke-width="0.315356" transform="matrix(0.0801223 0 0 0.0801223 3.392938 6.282114)"/>
                    <path d="m 227.894271 464.952416 l -4.777854 4.875361 h -18.62388 l -4.924115 -4.875361 l 4.924115 -4.924115 h 18.62388 z m 0 0" fill="#c01c28" fill-rule="evenodd" stroke="#000000" stroke-width="0.315356" transform="matrix(0.0801223 0 0 0.0801223 3.392938 6.282114)"/>
                    <path d="m 198.642104 440.136827 l 4.875361 4.777854 v 14.187301 l -4.875361 4.924115 l -4.924115 -4.924115 v -14.187301 z m 0 0" fill="#c01c28" fill-rule="evenodd" stroke="#000000" stroke-width="0.315356" transform="matrix(0.0801223 0 0 0.0801223 3.392938 6.282114)"/>
                    <path d="m 228.918097 440.136827 l 4.875361 4.777854 v 14.187301 l -4.875361 4.924115 l -4.924115 -4.924115 v -14.187301 z m 0 0" fill="none" stroke="#000000" stroke-width="0.315356" transform="matrix(0.0801223 0 0 0.0801223 3.392938 6.282114)"/>
                    <path d="m 42.199219 113.871094 h -7.039063 v -1.0625 l 2.785156 -2.835938 c 0.875 -0.875 1.445313 -1.496094 1.722657 -1.875 c 0.265625 -0.367187 0.46875 -0.71875 0.605469 -1.0625 c 0.128906 -0.367187 0.203124 -0.757812 0.203124 -1.164062 c 0 -0.570313 -0.175781 -1.015625 -0.503906 -1.316406 c -0.34375 -0.332032 -0.835937 -0.507813 -1.46875 -0.507813 c -0.445312 0 -0.863281 0.074219 -1.265625 0.203125 c -0.382812 0.140625 -0.8125 0.40625 -1.320312 0.808594 l -0.65625 -0.859375 c 1.011719 -0.808594 2.089843 -1.214844 3.242187 -1.214844 c 1.011719 0 1.796875 0.277344 2.378906 0.808594 c 0.570313 0.507812 0.859376 1.191406 0.859376 2.027343 c 0 0.707032 -0.199219 1.40625 -0.605469 2.074219 c -0.378907 0.648438 -1.089844 1.46875 -2.128907 2.484375 l -2.328124 2.328125 v 0.050781 h 5.519531 z m -7.796875 -16.054688"/>
                </g>
            </g>
        </mask>
        <mask id="g">
            <g filter="url(#e)">
                <rect fill-opacity="0.8" height="128" width="128"/>
            </g>
        </mask>
        <linearGradient id="h" gradientTransform="matrix(0 0.37 -0.98462 0 295.38501 -30.360001)" gradientUnits="userSpaceOnUse" x1="300" x2="428" y1="235" y2="235">
            <stop offset="0" stop-color="#f9f06b"/>
            <stop offset="1" stop-color="#f5c211"/>
        </linearGradient>
        <clipPath id="i">
            <rect height="128" width="128"/>
        </clipPath>
        <clipPath id="j">
            <rect height="128" width="128"/>
        </clipPath>
    </defs>
    <path d="m 17.105469 24.039062 h 93.761719 c 6.125 0 11.085937 4.824219 11.085937 10.773438 v 50.101562 c 0 5.949219 -4.960937 10.773438 -11.085937 10.773438 h -93.761719 c -6.121094 0 -11.082031 -4.824219 -11.082031 -10.773438 v -50.101562 c 0 -5.949219 4.960937 -10.773438 11.082031 -10.773438 z m 0 0" fill="#3d3846"/>
    <path d="m 17.105469 23.953125 c -6.140625 0 -11.082031 4.808594 -11.082031 10.777344 v 19.828125 h 115.929687 v -19.828125 c 0 -5.96875 -4.941406 -10.777344 -11.082031 -10.777344 z m 0 0" fill="#5e5c64"/>
    <path d="m 25.421875 77.910156 h 77.132813 v 6.015625 h -77.132813 z m 0 0" fill="#5e5c64"/>
    <path d="m 33.863281 80.773438 v 35.15625 h 42.007813 l 18.242187 -18.246094 v -16.910156 z m 0 0" fill="#ffffff"/>
    <path d="m 75.871094 97.683594 v 18.246094 l 18.242187 -18.246094 z m 0 0" fill="#c0bfbc"/>
    <path d="m 80.6875 109.722656 h -1.214844 v -7.648437 c 0 -0.632813 0.011719 -1.242188 0.050782 -1.824219 c -0.101563 0.101562 -0.226563 0.226562 -0.355469 0.355469 c -0.101563 0.101562 -0.683594 0.582031 -1.722657 1.417969 l -0.65625 -0.863282 l 2.835938 -2.175781 h 1.0625 z m -5.265625 -16.054687"/>
    <path d="m 6.52348900168 34.86336047742 h 15.89453332012 c 1.23828269068 0 2.23828140375 0.83203189815 2.23828140375 1.86718823595 v 18.64453456414" fill="none" stroke="#3d3846" stroke-linecap="square" stroke-linejoin="round" stroke-width="0.99344587976"/>
    <path d="m 8.742188 49.199219 h 3.128906 c 0.367187 0 0.660156 0.292969 0.660156 0.660156 v 1.980469 c 0 0.367187 -0.292969 0.660156 -0.660156 0.660156 h -3.128906 c -0.363282 0 -0.660157 -0.292969 -0.660157 -0.660156 v -1.980469 c 0 -0.367187 0.296875 -0.660156 0.660157 -0.660156 z m 0 0" fill="#26a269"/>
    <path d="m 8.742188 48.507812 h 3.128906 c 0.367187 0 0.660156 0.296876 0.660156 0.660157 v 1.980469 c 0 0.367187 -0.292969 0.664062 -0.660156 0.664062 h -3.128906 c -0.363282 0 -0.660157 -0.296875 -0.660157 -0.664062 v -1.980469 c 0 -0.363281 0.296875 -0.660157 0.660157 -0.660157 z m 0 0" fill="#33d17a"/>
    <path d="m 8.742188 43.59375 h 3.128906 c 0.367187 0 0.660156 0.292969 0.660156 0.660156 v 1.980469 c 0 0.363281 -0.292969 0.660156 -0.660156 0.660156 h -3.128906 c -0.363282 0 -0.660157 -0.296875 -0.660157 -0.660156 v -1.980469 c 0 -0.367187 0.296875 -0.660156 0.660157 -0.660156 z m 0 0" fill="#9a9996"/>
    <path d="m 8.742188 42.902344 h 3.128906 c 0.367187 0 0.660156 0.296875 0.660156 0.660156 v 1.980469 c 0 0.367187 -0.292969 0.664062 -0.660156 0.664062 h -3.128906 c -0.363282 0 -0.660157 -0.296875 -0.660157 -0.664062 v -1.980469 c 0 -0.363281 0.296875 -0.660156 0.660157 -0.660156 z m 0 0" fill="#deddda"/>
    <path d="m 8.742188 37.988281 h 3.128906 c 0.367187 0 0.660156 0.292969 0.660156 0.660157 v 1.980468 c 0 0.363282 -0.292969 0.660156 -0.660156 0.660156 h -3.128906 c -0.363282 0 -0.660157 -0.296874 -0.660157 -0.660156 v -1.980468 c 0 -0.367188 0.296875 -0.660157 0.660157 -0.660157 z m 0 0" fill="#1a5fb4"/>
    <path d="m 8.742188 37.296875 h 3.128906 c 0.367187 0 0.660156 0.296875 0.660156 0.660156 v 1.980469 c 0 0.367188 -0.292969 0.664062 -0.660156 0.664062 h -3.128906 c -0.363282 0 -0.660157 -0.296874 -0.660157 -0.664062 v -1.980469 c 0 -0.363281 0.296875 -0.660156 0.660157 -0.660156 z m 0 0" fill="#3584e4"/>
    <path d="m 23.05083469498 47.41023791438 c 0 0.42968793353 -0.35156094147 0.77734396033 -0.781248875 0.77734396033 s -0.77734396033 -0.3476560268 -0.77734396033 -0.77734396033 s 0.3476560268 -0.78125078824 0.77734396033 -0.78125078824 s 0.781248875 0.35156285471 0.781248875 0.78125078824 z m 0 0" fill="#33d17a" stroke="#26a269" stroke-linecap="square" stroke-width="0.21092087635"/>
    <path d="m 23.05083469498 49.78523724946 c 0 0.42968793353 -0.35156094147 0.77734396033 -0.781248875 0.77734396033 s -0.77734396033 -0.3476560268 -0.77734396033 -0.77734396033 c 0 -0.4296860203 0.3476560268 -0.77734396033 0.77734396033 -0.77734396033 s 0.781248875 0.34765794003 0.781248875 0.77734396033 z m 0 0" fill="#f6d32d" stroke="#e5a50a" stroke-linecap="square" stroke-width="0.21092087635"/>
    <path d="m 16.789062 45.597656 c 1.480469 0 2.679688 1.199219 2.679688 2.675782 v 0.671874 c 0 1.476563 -1.199219 2.679688 -2.679688 2.679688 c -1.476562 0 -2.675781 -1.203125 -2.675781 -2.679688 v -0.671874 c 0 -1.476563 1.199219 -2.675782 2.675781 -2.675782 z m 0 0" fill="#a51d2d"/>
    <path d="m 19.46875 48.273438 c 0 1.480468 -1.199219 2.679687 -2.679688 2.679687 c -1.476562 0 -2.675781 -1.199219 -2.675781 -2.679687 c 0 -1.476563 1.199219 -2.675782 2.675781 -2.675782 c 1.480469 0 2.679688 1.199219 2.679688 2.675782 z m 0 0" fill="#e01b24"/>
    <use transform="matrix(1 0 0 1 -8 -16)" xlink:href="#b"/>
    <path d="m 15.273438 38.4375 h 6.738281 c 0.640625 0 1.164062 0.519531 1.164062 1.164062 v 3.730469 c 0 0.644531 -0.523437 1.164063 -1.164062 1.164063 h -6.738281 c -0.640626 0 -1.160157 -0.519532 -1.160157 -1.164063 v -3.730469 c 0 -0.644531 0.519531 -1.164062 1.160157 -1.164062 z m 0 0"/>
    <g stroke="#000000" stroke-width="0.02526704804">
        <path d="m 17.89844344272 39.4023568048 l -0.38281265154 0.39062521677 h -1.49218810052 l -0.39453133914 -0.39062521677 l 0.39453133914 -0.39453133914 h 1.49218810052 z m 0 0" fill="#c01c28" fill-rule="evenodd"/>
        <path d="m 17.89844344272 41.46095139753 l -0.38281265154 0.39062513665 h -1.49218810052 l -0.39453133914 -0.39062513665 l 0.39453133914 -0.39453141926 h 1.49218810052 z m 0 0" fill="none"/>
        <path d="m 15.55469254269 39.472669331 l 0.39062513665 0.38671893416 v 1.13671918691 l -0.39062513665 0.39062513665 l -0.39453141926 -0.39062513665 v -1.13671918691 z m 0 0" fill="#c01c28" fill-rule="evenodd"/>
        <path d="m 17.98047473663 39.472669331 l 0.39062513665 0.38671893416 v 1.13671918691 l -0.39062513665 0.39062513665 l -0.39453141926 -0.39062513665 v -1.13671918691 z m 0 0" fill="#c01c28" fill-rule="evenodd"/>
        <path d="m 17.89844344272 43.53517096048 l -0.38281265154 0.39062513665 h -1.49218810052 l -0.39453133914 -0.39062513665 l 0.39453133914 -0.39453141926 h 1.49218810052 z m 0 0" fill="#c01c28" fill-rule="evenodd"/>
        <path d="m 15.55469254269 41.54688889394 l 0.39062513665 0.38281265154 v 1.13671918691 l -0.39062513665 0.39453141926 l -0.39453141926 -0.39453141926 v -1.13671918691 z m 0 0" fill="#c01c28" fill-rule="evenodd"/>
        <path d="m 17.98047473663 41.54688889394 l 0.39062513665 0.38281265154 v 1.13671918691 l -0.39062513665 0.39453141926 l -0.39453141926 -0.39453141926 v -1.13671918691 z m 0 0" fill="#c01c28" fill-rule="evenodd"/>
        <path d="m 21.65235114934 39.4023568048 l -0.38281265154 0.39062521677 h -1.49218810052 l -0.39453141926 -0.39062521677 l 0.39453141926 -0.39453133914 h 1.49218810052 z m 0 0" fill="#c01c28" fill-rule="evenodd"/>
        <path d="m 21.65235114934 41.46095139753 l -0.38281265154 0.39062513665 h -1.49218810052 l -0.39453141926 -0.39062513665 l 0.39453141926 -0.39453141926 h 1.49218810052 z m 0 0" fill="#c01c28" fill-rule="evenodd"/>
        <path d="m 19.30860024932 39.472669331 l 0.39062513665 0.38671893416 v 1.13671918691 l -0.39062513665 0.39062513665 l -0.39453141926 -0.39062513665 v -1.13671918691 z m 0 0" fill="none"/>
        <path d="m 21.73438244326 39.472669331 l 0.39062513665 0.38671893416 v 1.13671918691 l -0.39062513665 0.39062513665 l -0.39453141926 -0.39062513665 v -1.13671918691 z m 0 0" fill="#c01c28" fill-rule="evenodd"/>
        <path d="m 21.65235114934 43.53517096048 l -0.38281265154 0.39062513665 h -1.49218810052 l -0.39453141926 -0.39062513665 l 0.39453141926 -0.39453141926 h 1.49218810052 z m 0 0" fill="#c01c28" fill-rule="evenodd"/>
        <path d="m 19.30860024932 41.54688889394 l 0.39062513665 0.38281265154 v 1.13671918691 l -0.39062513665 0.39453141926 l -0.39453141926 -0.39453141926 v -1.13671918691 z m 0 0" fill="#c01c28" fill-rule="evenodd"/>
        <path d="m 21.73438244326 41.54688889394 l 0.39062513665 0.38281265154 v 1.13671918691 l -0.39062513665 0.39453141926 l -0.39453141926 -0.39453141926 v -1.13671918691 z m 0 0" fill="none"/>
    </g>
    <path d="m 42.199219 113.871094 h -7.039063 v -1.0625 l 2.785156 -2.835938 c 0.875 -0.875 1.445313 -1.496094 1.722657 -1.875 c 0.265625 -0.367187 0.46875 -0.71875 0.605469 -1.0625 c 0.128906 -0.367187 0.203124 -0.757812 0.203124 -1.164062 c 0 -0.570313 -0.175781 -1.015625 -0.503906 -1.316406 c -0.34375 -0.332032 -0.835937 -0.507813 -1.46875 -0.507813 c -0.445312 0 -0.863281 0.074219 -1.265625 0.203125 c -0.382812 0.140625 -0.8125 0.40625 -1.320312 0.808594 l -0.65625 -0.859375 c 1.011719 -0.808594 2.089843 -1.214844 3.242187 -1.214844 c 1.011719 0 1.796875 0.277344 2.378906 0.808594 c 0.570313 0.507812 0.859376 1.191406 0.859376 2.027343 c 0 0.707032 -0.199219 1.40625 -0.605469 2.074219 c -0.378907 0.648438 -1.089844 1.46875 -2.128907 2.484375 l -2.328124 2.328125 v 0.050781 h 5.519531 z m -7.796875 -16.054688"/>
    <g clip-path="url(#j)" mask="url(#f)">
        <g clip-path="url(#i)" mask="url(#g)">
            <path d="m 128 80.640625 v 47.359375 h -128 v -47.359375 z m 0 0" fill="url(#h)"/>
            <path d="m 13.308594 80.640625 l 47.355468 47.359375 h 21.214844 l -47.359375 -47.359375 z m 42.421875 0 l 47.363281 47.359375 h 21.214844 l -47.363282 -47.359375 z m 42.429687 0 l 29.839844 29.839844 v -21.210938 l -8.628906 -8.628906 z m -98.160156 7.90625 v 21.214844 l 18.238281 18.238281 h 21.214844 z m 0 0"/>
        </g>
    </g>
</svg>
